# Blender 4.0.2
# www.blender.org
o Cube
v 0.500000 -0.500000 0.125000
v 0.500000 0.500000 0.125000
v 0.976562 -0.976562 -0.125000
v 0.976562 0.976562 -0.125000
v -0.500000 -0.500000 0.125000
v -0.500000 0.500000 0.125000
v -0.976562 -0.976562 -0.125000
v -0.976562 0.976562 -0.125000
vn -0.0000 -0.4645 0.8855
vn -0.0000 -0.0000 -1.0000
vn -0.4645 -0.0000 0.8855
vn -0.0000 0.4645 0.8855
vn 0.4645 -0.0000 0.8855
vn -0.0000 -0.0000 1.0000
s 0
f 5//1 3//1 1//1
f 3//2 8//2 4//2
f 8//3 5//3 6//3
f 2//4 8//4 6//4
f 1//5 4//5 2//5
f 5//6 2//6 6//6
f 5//1 7//1 3//1
f 3//2 7//2 8//2
f 8//3 7//3 5//3
f 2//4 4//4 8//4
f 1//5 3//5 4//5
f 5//6 1//6 2//6
