# Blender 4.0.2
# www.blender.org
o Circle
v 0.000000 -1.000000 0.100000
v -0.195090 -0.980785 0.100000
v -0.382683 -0.923880 0.100000
v -0.555570 -0.831470 0.100000
v -0.707107 -0.707107 0.100000
v -0.831470 -0.555570 0.100000
v -0.923880 -0.382683 0.100000
v -0.980785 -0.195090 0.100000
v -1.000000 0.000000 0.100000
v -0.980785 0.195090 0.100000
v -0.923880 0.382683 0.100000
v -0.831470 0.555570 0.100000
v -0.707107 0.707107 0.100000
v -0.555570 0.831470 0.100000
v -0.382683 0.923880 0.100000
v -0.195090 0.980785 0.100000
v 0.000000 1.000000 0.100000
v 0.195090 0.980785 0.100000
v 0.382683 0.923880 0.100000
v 0.555570 0.831470 0.100000
v 0.707107 0.707107 0.100000
v 0.831470 0.555570 0.100000
v 0.923880 0.382683 0.100000
v 0.980785 0.195090 0.100000
v 1.000000 0.000000 0.100000
v 0.980785 -0.195090 0.100000
v 0.923880 -0.382683 0.100000
v 0.831470 -0.555570 0.100000
v 0.707107 -0.707107 0.100000
v 0.555570 -0.831470 0.100000
v 0.382683 -0.923880 0.100000
v 0.195090 -0.980785 0.100000
v 0.000000 -1.000000 0.100000
v -0.195090 -0.980785 0.100000
v -0.382683 -0.923880 0.100000
v -0.555570 -0.831470 0.100000
v -0.707107 -0.707107 0.100000
v -0.831470 -0.555570 0.100000
v -0.923880 -0.382683 0.100000
v -0.980785 -0.195090 0.100000
v -1.000000 0.000000 0.100000
v -0.980785 0.195090 0.100000
v -0.923880 0.382683 0.100000
v -0.831470 0.555570 0.100000
v -0.707107 0.707107 0.100000
v -0.555570 0.831470 0.100000
v -0.382683 0.923880 0.100000
v -0.195090 0.980785 0.100000
v 0.000000 1.000000 0.100000
v 0.195090 0.980785 0.100000
v 0.382683 0.923880 0.100000
v 0.555570 0.831470 0.100000
v 0.707107 0.707107 0.100000
v 0.831470 0.555570 0.100000
v 0.923880 0.382683 0.100000
v 0.980785 0.195090 0.100000
v 1.000000 0.000000 0.100000
v 0.980785 -0.195090 0.100000
v 0.923880 -0.382683 0.100000
v 0.831470 -0.555570 0.100000
v 0.707107 -0.707107 0.100000
v 0.555570 -0.831470 0.100000
v 0.382683 -0.923880 0.100000
v 0.195090 -0.980785 0.100000
v 0.000000 -1.000000 0.100000
v -0.195090 -0.980785 0.100000
v -0.382683 -0.923880 0.100000
v -0.555570 -0.831470 0.100000
v -0.707107 -0.707107 0.100000
v -0.831470 -0.555570 0.100000
v -0.923880 -0.382683 0.100000
v -0.980785 -0.195090 0.100000
v -1.000000 0.000000 0.100000
v -0.980785 0.195090 0.100000
v -0.923880 0.382683 0.100000
v -0.831470 0.555570 0.100000
v -0.707107 0.707107 0.100000
v -0.555570 0.831470 0.100000
v -0.382683 0.923880 0.100000
v -0.195090 0.980785 0.100000
v 0.000000 1.000000 0.100000
v 0.195090 0.980785 0.100000
v 0.382683 0.923880 0.100000
v 0.555570 0.831470 0.100000
v 0.707107 0.707107 0.100000
v 0.831470 0.555570 0.100000
v 0.923880 0.382683 0.100000
v 0.980785 0.195090 0.100000
v 1.000000 0.000000 0.100000
v 0.980785 -0.195090 0.100000
v 0.923880 -0.382683 0.100000
v 0.831470 -0.555570 0.100000
v 0.707107 -0.707107 0.100000
v 0.555570 -0.831470 0.100000
v 0.382683 -0.923880 0.100000
v 0.195090 -0.980785 0.100000
v 0.000000 -1.000000 -0.100000
v -0.195090 -0.980785 -0.100000
v -0.382683 -0.923880 -0.100000
v -0.555570 -0.831470 -0.100000
v -0.707107 -0.707107 -0.100000
v -0.831470 -0.555570 -0.100000
v -0.923880 -0.382683 -0.100000
v -0.980785 -0.195090 -0.100000
v -1.000000 0.000000 -0.100000
v -0.980785 0.195090 -0.100000
v -0.923880 0.382683 -0.100000
v -0.831470 0.555570 -0.100000
v -0.707107 0.707107 -0.100000
v -0.555570 0.831470 -0.100000
v -0.382683 0.923880 -0.100000
v -0.195090 0.980785 -0.100000
v 0.000000 1.000000 -0.100000
v 0.195090 0.980785 -0.100000
v 0.382683 0.923880 -0.100000
v 0.555570 0.831470 -0.100000
v 0.707107 0.707107 -0.100000
v 0.831470 0.555570 -0.100000
v 0.923880 0.382683 -0.100000
v 0.980785 0.195090 -0.100000
v 1.000000 0.000000 -0.100000
v 0.980785 -0.195090 -0.100000
v 0.923880 -0.382683 -0.100000
v 0.831470 -0.555570 -0.100000
v 0.707107 -0.707107 -0.100000
v 0.555570 -0.831470 -0.100000
v 0.382683 -0.923880 -0.100000
v 0.195090 -0.980785 -0.100000
vn -0.0000 -0.0000 -1.0000
vn 0.1951 0.9808 -0.0000
vn 0.3827 0.9239 -0.0000
vn 0.2785 0.6725 -0.6857
vn 0.3827 -0.9239 -0.0000
vn 0.1951 -0.9808 -0.0000
vn 0.1420 -0.7139 -0.6857
vn -0.5556 -0.8315 -0.0000
vn -0.7071 -0.7071 -0.0000
vn -0.5147 -0.5147 -0.6857
vn -0.0000 1.0000 -0.0000
vn 0.1420 0.7139 -0.6857
vn 0.5556 -0.8315 -0.0000
vn 0.2785 -0.6725 -0.6857
vn -0.3827 -0.9239 -0.0000
vn -0.4044 -0.6052 -0.6857
vn -0.1951 0.9808 -0.0000
vn -0.0000 0.7279 -0.6857
vn 0.7071 -0.7071 -0.0000
vn 0.4044 -0.6052 -0.6857
vn -0.1951 -0.9808 -0.0000
vn -0.2785 -0.6725 -0.6857
vn -0.3827 0.9239 -0.0000
vn -0.1420 0.7139 -0.6857
vn 0.8315 -0.5556 -0.0000
vn 0.5147 -0.5147 -0.6857
vn -0.5556 0.8315 -0.0000
vn -0.2785 0.6725 -0.6857
vn 0.9239 -0.3827 -0.0000
vn 0.6052 -0.4044 -0.6857
vn -0.7071 0.7071 -0.0000
vn -0.4044 0.6052 -0.6857
vn 0.9808 -0.1951 -0.0000
vn 0.6725 -0.2785 -0.6857
vn -0.8315 0.5556 -0.0000
vn -0.5147 0.5147 -0.6857
vn 1.0000 -0.0000 -0.0000
vn 0.7139 -0.1420 -0.6857
vn -0.9239 0.3827 -0.0000
vn -0.6052 0.4044 -0.6857
vn 0.9808 0.1951 -0.0000
vn 0.7279 -0.0000 -0.6857
vn -0.0000 -1.0000 -0.0000
vn -0.1420 -0.7139 -0.6857
vn -0.9808 0.1951 -0.0000
vn -0.6725 0.2785 -0.6857
vn 0.9239 0.3827 -0.0000
vn 0.7139 0.1420 -0.6857
vn -1.0000 -0.0000 -0.0000
vn -0.7139 0.1420 -0.6857
vn 0.8315 0.5556 -0.0000
vn 0.6725 0.2785 -0.6857
vn -0.9808 -0.1951 -0.0000
vn -0.7279 -0.0000 -0.6857
vn 0.7071 0.7071 -0.0000
vn 0.6052 0.4044 -0.6857
vn -0.9239 -0.3827 -0.0000
vn -0.7139 -0.1420 -0.6857
vn 0.5556 0.8315 -0.0000
vn 0.5147 0.5147 -0.6857
vn -0.8315 -0.5556 -0.0000
vn -0.6725 -0.2785 -0.6857
vn 0.4044 0.6052 -0.6857
vn -0.0000 -0.7279 -0.6857
vn -0.6052 -0.4044 -0.6857
vn -0.0000 -0.0000 1.0000
vt 0.000000 0.000000
s 1
f 11/1/1 42/1/1 43/1/1
f 25/1/1 56/1/1 57/1/1
f 12/1/1 43/1/1 44/1/1
f 26/1/1 57/1/1 58/1/1
f 13/1/1 44/1/1 45/1/1
f 27/1/1 58/1/1 59/1/1
f 14/1/1 45/1/1 46/1/1
f 28/1/1 59/1/1 60/1/1
f 15/1/1 46/1/1 47/1/1
f 2/1/1 33/1/1 34/1/1
f 29/1/1 60/1/1 61/1/1
f 16/1/1 47/1/1 48/1/1
f 3/1/1 34/1/1 35/1/1
f 30/1/1 61/1/1 62/1/1
f 17/1/1 48/1/1 49/1/1
f 4/1/1 35/1/1 36/1/1
f 31/1/1 62/1/1 63/1/1
f 18/1/1 49/1/1 50/1/1
f 5/1/1 36/1/1 37/1/1
f 32/1/1 63/1/1 64/1/1
f 19/1/1 50/1/1 51/1/1
f 6/1/1 37/1/1 38/1/1
f 1/1/1 64/1/1 33/1/1
f 20/1/1 51/1/1 52/1/1
f 7/1/1 38/1/1 39/1/1
f 21/1/1 52/1/1 53/1/1
f 8/1/1 39/1/1 40/1/1
f 22/1/1 53/1/1 54/1/1
f 9/1/1 40/1/1 41/1/1
f 23/1/1 54/1/1 55/1/1
f 10/1/1 41/1/1 42/1/1
f 24/1/1 55/1/1 56/1/1
f 50/1/1 81/1/1 82/1/1
f 63/1/1 94/1/1 95/1/1
f 36/1/1 67/1/1 68/1/1
f 49/1/1 80/1/1 81/1/1
f 62/1/1 93/1/1 94/1/1
f 35/1/1 66/1/1 67/1/1
f 48/1/1 79/1/1 80/1/1
f 61/1/1 92/1/1 93/1/1
f 34/1/1 65/1/1 66/1/1
f 47/1/1 78/1/1 79/1/1
f 60/1/1 91/1/1 92/1/1
f 46/1/1 77/1/1 78/1/1
f 59/1/1 90/1/1 91/1/1
f 45/1/1 76/1/1 77/1/1
f 58/1/1 89/1/1 90/1/1
f 44/1/1 75/1/1 76/1/1
f 57/1/1 88/1/1 89/1/1
f 43/1/1 74/1/1 75/1/1
f 56/1/1 87/1/1 88/1/1
f 42/1/1 73/1/1 74/1/1
f 55/1/1 86/1/1 87/1/1
f 41/1/1 72/1/1 73/1/1
f 54/1/1 85/1/1 86/1/1
f 40/1/1 71/1/1 72/1/1
f 53/1/1 84/1/1 85/1/1
f 39/1/1 70/1/1 71/1/1
f 82/1/2 83/1/3 115/1/4
f 52/1/1 83/1/1 84/1/1
f 33/1/1 96/1/1 65/1/1
f 38/1/1 69/1/1 70/1/1
f 51/1/1 82/1/1 83/1/1
f 95/1/5 96/1/6 128/1/7
f 68/1/8 69/1/9 101/1/10
f 81/1/11 82/1/2 114/1/12
f 94/1/13 95/1/5 127/1/14
f 67/1/15 68/1/8 100/1/16
f 80/1/17 81/1/11 113/1/18
f 93/1/19 94/1/13 126/1/20
f 66/1/21 67/1/15 99/1/22
f 79/1/23 80/1/17 112/1/24
f 92/1/25 93/1/19 125/1/26
f 78/1/27 79/1/23 111/1/28
f 91/1/29 92/1/25 124/1/30
f 77/1/31 78/1/27 110/1/32
f 90/1/33 91/1/29 123/1/34
f 76/1/35 77/1/31 109/1/36
f 89/1/37 90/1/33 122/1/38
f 75/1/39 76/1/35 108/1/40
f 88/1/41 89/1/37 121/1/42
f 65/1/43 66/1/21 98/1/44
f 74/1/45 75/1/39 107/1/46
f 87/1/47 88/1/41 120/1/48
f 73/1/49 74/1/45 106/1/50
f 86/1/51 87/1/47 119/1/52
f 72/1/53 73/1/49 105/1/54
f 85/1/55 86/1/51 118/1/56
f 71/1/57 72/1/53 104/1/58
f 84/1/59 85/1/55 117/1/60
f 70/1/61 71/1/57 103/1/62
f 83/1/3 84/1/59 116/1/63
f 37/1/1 68/1/1 69/1/1
f 64/1/1 95/1/1 96/1/1
f 128/1/7 97/1/64 98/1/44
f 127/1/14 128/1/7 98/1/44
f 127/1/14 98/1/44 126/1/20
f 98/1/44 100/1/16 126/1/20
f 99/1/22 100/1/16 98/1/44
f 125/1/26 126/1/20 100/1/16
f 125/1/26 100/1/16 101/1/10
f 124/1/30 125/1/26 101/1/10
f 114/1/12 110/1/32 111/1/28
f 103/1/62 123/1/34 101/1/10
f 103/1/62 101/1/10 102/1/65
f 122/1/38 123/1/34 104/1/58
f 101/1/10 123/1/34 124/1/30
f 121/1/42 122/1/38 104/1/58
f 121/1/42 104/1/58 105/1/54
f 120/1/48 121/1/42 105/1/54
f 120/1/48 105/1/54 106/1/50
f 119/1/52 120/1/48 106/1/50
f 119/1/52 106/1/50 107/1/46
f 118/1/56 119/1/52 117/1/60
f 104/1/58 123/1/34 103/1/62
f 117/1/60 119/1/52 107/1/46
f 117/1/60 108/1/40 109/1/36
f 116/1/63 117/1/60 109/1/36
f 116/1/63 109/1/36 110/1/32
f 115/1/4 116/1/63 114/1/12
f 114/1/12 116/1/63 110/1/32
f 114/1/12 111/1/28 112/1/24
f 113/1/18 114/1/12 112/1/24
f 117/1/60 107/1/46 108/1/40
f 69/1/9 70/1/61 102/1/65
f 96/1/6 65/1/43 97/1/64
f 11/1/1 10/1/1 42/1/1
f 25/1/1 24/1/1 56/1/1
f 12/1/1 11/1/1 43/1/1
f 26/1/1 25/1/1 57/1/1
f 13/1/1 12/1/1 44/1/1
f 27/1/1 26/1/1 58/1/1
f 14/1/1 13/1/1 45/1/1
f 28/1/1 27/1/1 59/1/1
f 15/1/1 14/1/1 46/1/1
f 2/1/1 1/1/1 33/1/1
f 29/1/1 28/1/1 60/1/1
f 16/1/1 15/1/1 47/1/1
f 3/1/1 2/1/1 34/1/1
f 30/1/1 29/1/1 61/1/1
f 17/1/1 16/1/1 48/1/1
f 4/1/1 3/1/1 35/1/1
f 31/1/1 30/1/1 62/1/1
f 18/1/1 17/1/1 49/1/1
f 5/1/1 4/1/1 36/1/1
f 32/1/1 31/1/1 63/1/1
f 19/1/1 18/1/1 50/1/1
f 6/1/1 5/1/1 37/1/1
f 1/1/1 32/1/1 64/1/1
f 20/1/1 19/1/1 51/1/1
f 7/1/1 6/1/1 38/1/1
f 21/1/1 20/1/1 52/1/1
f 8/1/1 7/1/1 39/1/1
f 22/1/1 21/1/1 53/1/1
f 9/1/1 8/1/1 40/1/1
f 23/1/1 22/1/1 54/1/1
f 10/1/1 9/1/1 41/1/1
f 24/1/1 23/1/1 55/1/1
f 50/1/1 49/1/1 81/1/1
f 63/1/1 62/1/1 94/1/1
f 36/1/1 35/1/1 67/1/1
f 49/1/1 48/1/1 80/1/1
f 62/1/1 61/1/1 93/1/1
f 35/1/1 34/1/1 66/1/1
f 48/1/1 47/1/1 79/1/1
f 61/1/1 60/1/1 92/1/1
f 34/1/1 33/1/1 65/1/1
f 47/1/1 46/1/1 78/1/1
f 60/1/1 59/1/1 91/1/1
f 46/1/1 45/1/1 77/1/1
f 59/1/1 58/1/1 90/1/1
f 45/1/1 44/1/1 76/1/1
f 58/1/1 57/1/1 89/1/1
f 44/1/1 43/1/1 75/1/1
f 57/1/1 56/1/1 88/1/1
f 43/1/1 42/1/1 74/1/1
f 56/1/1 55/1/1 87/1/1
f 42/1/1 41/1/1 73/1/1
f 55/1/1 54/1/1 86/1/1
f 41/1/1 40/1/1 72/1/1
f 54/1/1 53/1/1 85/1/1
f 40/1/1 39/1/1 71/1/1
f 53/1/1 52/1/1 84/1/1
f 39/1/1 38/1/1 70/1/1
f 82/1/2 115/1/4 114/1/12
f 52/1/1 51/1/1 83/1/1
f 33/1/1 64/1/1 96/1/1
f 38/1/1 37/1/1 69/1/1
f 51/1/1 50/1/1 82/1/1
f 95/1/5 128/1/7 127/1/14
f 68/1/8 101/1/10 100/1/16
f 81/1/11 114/1/12 113/1/18
f 94/1/13 127/1/14 126/1/20
f 67/1/15 100/1/16 99/1/22
f 80/1/17 113/1/18 112/1/24
f 93/1/19 126/1/20 125/1/26
f 66/1/21 99/1/22 98/1/44
f 79/1/23 112/1/24 111/1/28
f 92/1/25 125/1/26 124/1/30
f 78/1/27 111/1/28 110/1/32
f 91/1/29 124/1/30 123/1/34
f 77/1/31 110/1/32 109/1/36
f 90/1/33 123/1/34 122/1/38
f 76/1/35 109/1/36 108/1/40
f 89/1/37 122/1/38 121/1/42
f 75/1/39 108/1/40 107/1/46
f 88/1/41 121/1/42 120/1/48
f 65/1/43 98/1/44 97/1/64
f 74/1/45 107/1/46 106/1/50
f 87/1/47 120/1/48 119/1/52
f 73/1/49 106/1/50 105/1/54
f 86/1/51 119/1/52 118/1/56
f 72/1/53 105/1/54 104/1/58
f 85/1/55 118/1/56 117/1/60
f 71/1/57 104/1/58 103/1/62
f 84/1/59 117/1/60 116/1/63
f 70/1/61 103/1/62 102/1/65
f 83/1/3 116/1/63 115/1/4
f 37/1/1 36/1/1 68/1/1
f 64/1/1 63/1/1 95/1/1
f 69/1/9 102/1/65 101/1/10
f 96/1/6 97/1/64 128/1/7
f 66/1/66 65/1/66 96/1/66
f 90/1/66 96/1/66 92/1/66
f 68/1/66 67/1/66 66/1/66
f 96/1/66 95/1/66 94/1/66
f 93/1/66 92/1/66 94/1/66
f 96/1/66 74/1/66 66/1/66
f 76/1/66 80/1/66 78/1/66
f 86/1/66 85/1/66 84/1/66
f 91/1/66 90/1/66 92/1/66
f 96/1/66 90/1/66 74/1/66
f 72/1/66 71/1/66 70/1/66
f 72/1/66 70/1/66 66/1/66
f 74/1/66 72/1/66 66/1/66
f 74/1/66 80/1/66 76/1/66
f 82/1/66 86/1/66 84/1/66
f 74/1/66 73/1/66 72/1/66
f 92/1/66 96/1/66 94/1/66
f 90/1/66 88/1/66 82/1/66
f 88/1/66 86/1/66 82/1/66
f 88/1/66 87/1/66 86/1/66
f 80/1/66 74/1/66 90/1/66
f 75/1/66 74/1/66 76/1/66
f 70/1/66 69/1/66 68/1/66
f 80/1/66 90/1/66 82/1/66
f 77/1/66 76/1/66 78/1/66
f 90/1/66 89/1/66 88/1/66
f 80/1/66 79/1/66 78/1/66
f 66/1/66 70/1/66 68/1/66
f 81/1/66 80/1/66 82/1/66
f 84/1/66 83/1/66 82/1/66
